<svg width="365" height="366" viewBox="0 0 365 366" fill="none" xmlns="http://www.w3.org/2000/svg">
<path d="M18.23 26.03C18.23 26.04 18.23 26.05 18.23 26.06C18.23 26.05 18.23 26.04 18.23 26.03ZM25.72 7.27998C21.02 11.57 18.23 18.71 18.23 28.17V26.12V339.83C18.23 348.65 20.59 355.44 24.84 359.69L24.85 359.7L201.58 182.97V182.95L201.56 182.97L25.72 7.27998ZM25.28 5.59998L24.69 6.09998C20.6 10.49 18.25 17.25 18.23 26.02C18.25 16.9 20.87 9.92998 25.28 5.59998Z" fill="url(#paint0_linear)"/>
<path d="M260.24 122.27L260.18 122.33L261.49 123.07L261.48 123.08L330.86 162.49C340.79 168.17 345.68 175.59 345.68 182.99C344.89 176.2 339.85 169.59 330.86 164.55L260.18 124.39L201.6 182.95V182.97L260.18 241.57L330.87 201.42C339.86 196.22 344.9 189.76 345.54 182.98C345.54 190.4 340.65 197.8 330.72 203.48L261.54 242.79L261.61 242.85L330.9 203.48C350.76 192.13 350.76 173.68 330.9 162.49L261.53 123.07L260.24 122.27Z" fill="url(#paint1_linear)"/>
<path d="M201.59 182.97L24.86 359.7L24.7 359.86C28.13 363.55 32.81 365.5 38.27 365.5C43.08 365.5 48.5 363.98 54.19 360.8L143.73 309.87L54.34 360.65C48.66 363.91 43.29 365.45 38.51 365.45C33.6 365.45 29.32 363.83 25.97 360.8L24.86 359.86L25.97 358.75C29.32 361.79 33.6 363.41 38.5 363.41C43.28 363.41 48.66 361.87 54.35 358.6L260.13 241.68L260.07 241.62L260.17 241.56L201.59 182.97Z" fill="url(#paint2_linear)"/>
<path d="M54.18 5.30999L261.47 123.08L261.48 123.07L260.17 122.33L54.18 5.30999ZM53.18 4.75999C53.51 4.93999 53.84 5.11999 54.18 5.30999C53.85 5.11999 53.52 4.93999 53.18 4.75999ZM38.28 2.62C33.35 2.62 29.06 4.22999 25.72 7.27999L201.56 182.97L201.58 182.95L260.16 124.39L54.18 7.35999C48.47 4.13999 43.07 2.62 38.28 2.62Z" fill="url(#paint3_linear)"/>
<path d="M261.58 242.84L261.5 242.89C261.48 242.89 260.22 243.68 260.22 243.68L260.18 243.64L143.73 309.88L261.65 242.9L261.58 242.84Z" fill="#CCCCCC"/>
<path d="M261.52 242.78L261.43 242.83L261.49 242.89L260.18 243.63L260.22 243.67C260.22 243.67 261.49 242.88 261.5 242.88L261.58 242.83L261.52 242.78Z" fill="url(#paint4_linear)"/>
<path d="M260.12 241.68L54.34 358.6C48.66 361.87 43.28 363.41 38.49 363.41C33.59 363.41 29.31 361.79 25.96 358.75L24.85 359.86L25.96 360.8C29.31 363.83 33.6 365.45 38.5 365.45C43.28 365.45 48.66 363.91 54.33 360.65L143.72 309.87L260.17 243.63L261.48 242.89L261.42 242.83L261.32 242.89L260.12 241.68Z" fill="url(#paint5_linear)"/>
<path d="M345.52 182.97C344.89 189.76 339.84 196.22 330.85 201.41L260.16 241.56L260.22 241.62L261.51 242.77L330.69 203.46C340.63 197.79 345.52 190.39 345.52 182.97Z" fill="url(#paint6_linear)"/>
<path d="M260.16 241.57L260.06 241.62L260.12 241.68L260.22 241.62V241.63L260.16 241.57Z" fill="url(#paint7_linear)"/>
<path d="M260.22 241.63L261.43 242.83L261.52 242.78L260.22 241.63Z" fill="url(#paint8_linear)"/>
<path d="M260.22 241.62L260.12 241.68L261.33 242.89L261.43 242.83L260.22 241.63V241.62Z" fill="url(#paint9_linear)"/>
<path d="M18.23 26.06C18.23 26.08 18.23 26.09 18.23 26.11C18.23 26.1 18.23 26.08 18.23 26.06ZM18.23 26.02V26.03V26.02ZM38.26 0.5C33.12 0.5 28.67 2.27 25.28 5.6L25.75 5.2C29.08 2.17 33.39 0.550003 38.34 0.550003C42.85 0.550003 47.89 1.9 53.19 4.76C47.84 1.87 42.78 0.5 38.26 0.5Z" fill="white"/>
<path d="M25.75 5.20001L25.28 5.60001C20.86 9.93001 18.25 16.9 18.23 26.02V26.03C18.23 26.04 18.23 26.05 18.23 26.06C18.23 26.08 18.23 26.09 18.23 26.11V28.16C18.23 18.7 21.02 11.57 25.72 7.27001L24.69 6.24001C25.03 5.88001 25.39 5.53001 25.75 5.20001Z" fill="url(#paint10_linear)"/>
<path d="M261.48 123.08L260.17 124.39L330.85 164.55C339.84 169.59 344.88 176.21 345.67 182.99C345.67 175.59 340.78 168.17 330.85 162.49L261.48 123.08Z" fill="url(#paint11_linear)"/>
<path d="M38.34 0.549988C33.4 0.549988 29.08 2.16998 25.75 5.19998C25.38 5.52998 25.03 5.87998 24.69 6.24998L25.72 7.27998C29.05 4.22998 33.35 2.61999 38.28 2.61999C43.07 2.61999 48.47 4.13999 54.18 7.35999L260.17 124.39L261.48 123.08L54.18 5.30998C53.85 5.11998 53.51 4.92999 53.18 4.75999C47.89 1.89999 42.85 0.549988 38.34 0.549988Z" fill="url(#paint12_linear)"/>
<defs>
<linearGradient id="paint0_linear" x1="185.644" y1="22.1022" x2="-95.5945" y2="97.003" gradientUnits="userSpaceOnUse">
<stop stop-color="#00A0FF"/>
<stop offset="0.007" stop-color="#00A1FF"/>
<stop offset="0.26" stop-color="#00BEFF"/>
<stop offset="0.512" stop-color="#00D2FF"/>
<stop offset="0.76" stop-color="#00DFFF"/>
<stop offset="1" stop-color="#00E3FF"/>
</linearGradient>
<linearGradient id="paint1_linear" x1="356.665" y1="182.553" x2="13.4082" y2="182.553" gradientUnits="userSpaceOnUse">
<stop stop-color="#FFE000"/>
<stop offset="0.409" stop-color="#FFBD00"/>
<stop offset="0.775" stop-color="#FFA500"/>
<stop offset="1" stop-color="#FF9C00"/>
</linearGradient>
<linearGradient id="paint2_linear" x1="228.207" y1="215.07" x2="1.98366" y2="595.387" gradientUnits="userSpaceOnUse">
<stop stop-color="#FF3A44"/>
<stop offset="1" stop-color="#C31162"/>
</linearGradient>
<linearGradient id="paint3_linear" x1="-20.197" y1="-98.1965" x2="80.7489" y2="71.5323" gradientUnits="userSpaceOnUse">
<stop stop-color="#32A071"/>
<stop offset="0.069" stop-color="#2DA771"/>
<stop offset="0.476" stop-color="#15CF74"/>
<stop offset="0.801" stop-color="#06E775"/>
<stop offset="1" stop-color="#00F076"/>
</linearGradient>
<linearGradient id="paint4_linear" x1="356.664" y1="243.161" x2="13.4092" y2="243.161" gradientUnits="userSpaceOnUse">
<stop stop-color="#CCB300"/>
<stop offset="0.409" stop-color="#CC9700"/>
<stop offset="0.775" stop-color="#CC8400"/>
<stop offset="1" stop-color="#CC7D00"/>
</linearGradient>
<linearGradient id="paint5_linear" x1="229.081" y1="215.589" x2="2.85717" y2="595.907" gradientUnits="userSpaceOnUse">
<stop stop-color="#CC2E36"/>
<stop offset="1" stop-color="#9C0E4E"/>
</linearGradient>
<linearGradient id="paint6_linear" x1="356.665" y1="212.857" x2="13.4082" y2="212.857" gradientUnits="userSpaceOnUse">
<stop stop-color="#E0C500"/>
<stop offset="0.409" stop-color="#E0A600"/>
<stop offset="0.775" stop-color="#E09100"/>
<stop offset="1" stop-color="#E08900"/>
</linearGradient>
<linearGradient id="paint7_linear" x1="264.897" y1="236.895" x2="38.7204" y2="617.192" gradientUnits="userSpaceOnUse">
<stop stop-color="#E0333C"/>
<stop offset="1" stop-color="#AB0F56"/>
</linearGradient>
<linearGradient id="paint8_linear" x1="356.664" y1="242.257" x2="13.4105" y2="242.257" gradientUnits="userSpaceOnUse">
<stop stop-color="#B39D00"/>
<stop offset="0.409" stop-color="#B38500"/>
<stop offset="0.775" stop-color="#B37400"/>
<stop offset="1" stop-color="#B36E00"/>
</linearGradient>
<linearGradient id="paint9_linear" x1="265.771" y1="237.413" x2="39.5415" y2="617.733" gradientUnits="userSpaceOnUse">
<stop stop-color="#B3282F"/>
<stop offset="1" stop-color="#890C45"/>
</linearGradient>
<linearGradient id="paint10_linear" x1="150.113" y1="-111.31" x2="-131.126" y2="-36.4097" gradientUnits="userSpaceOnUse">
<stop stop-color="#40B8FF"/>
<stop offset="0.007" stop-color="#40B9FF"/>
<stop offset="0.26" stop-color="#40CEFF"/>
<stop offset="0.512" stop-color="#40DDFF"/>
<stop offset="0.76" stop-color="#40E7FF"/>
<stop offset="1" stop-color="#40EAFF"/>
</linearGradient>
<linearGradient id="paint11_linear" x1="356.665" y1="153.034" x2="13.4082" y2="153.034" gradientUnits="userSpaceOnUse">
<stop stop-color="#FFE840"/>
<stop offset="0.409" stop-color="#FFCE40"/>
<stop offset="0.775" stop-color="#FFBC40"/>
<stop offset="1" stop-color="#FFB540"/>
</linearGradient>
<linearGradient id="paint12_linear" x1="-20.0995" y1="-98.2545" x2="80.8464" y2="71.4743" gradientUnits="userSpaceOnUse">
<stop stop-color="#65B895"/>
<stop offset="0.069" stop-color="#62BD95"/>
<stop offset="0.476" stop-color="#50DB97"/>
<stop offset="0.801" stop-color="#44ED98"/>
<stop offset="1" stop-color="#40F498"/>
</linearGradient>
</defs>
</svg>
