<svg width="88" height="82" viewBox="0 0 88 82" fill="none" xmlns="http://www.w3.org/2000/svg">
<g clip-path="url(#clip0)">
<path d="M79.616 26.8269C77.932 22.7749 74.516 18.3999 71.841 17.0169C73.749 20.712 75.073 24.6804 75.766 28.7809L75.773 28.8459C71.391 17.9209 63.96 13.5159 57.891 3.92391C57.584 3.43891 57.277 2.95291 56.978 2.43991C56.807 2.14691 56.67 1.88291 56.551 1.63991C56.2993 1.15247 56.1053 0.637319 55.973 0.104915C55.9732 0.0803467 55.9643 0.0565733 55.9481 0.0381294C55.9318 0.0196855 55.9094 0.00786207 55.885 0.0049145C55.8611 -0.00163817 55.8359 -0.00163817 55.812 0.0049145C55.807 0.0049145 55.799 0.0139145 55.793 0.0159145C55.787 0.0179145 55.774 0.0269145 55.765 0.0309145L55.78 0.0049145C46.045 5.70491 42.742 16.2569 42.438 21.5349C38.5503 21.8022 34.8334 23.2348 31.772 25.6459C31.4526 25.3754 31.1188 25.1223 30.772 24.8879C29.8889 21.7969 29.8513 18.5255 30.663 15.4149C27.0879 17.1468 23.9113 19.602 21.334 22.6249H21.316C19.78 20.6779 19.888 14.2579 19.976 12.9169C19.5216 13.0995 19.0878 13.3298 18.682 13.6039C17.326 14.5717 16.0584 15.6576 14.894 16.8489C13.5671 18.1942 12.3552 19.6483 11.271 21.1959V21.2019V21.1949C8.77924 24.7275 7.0119 28.7186 6.071 32.9379L6.019 33.1939C5.946 33.5349 5.683 35.2429 5.638 35.6139C5.638 35.6429 5.632 35.6699 5.629 35.6989C5.28974 37.4623 5.07951 39.248 5 41.0419V41.2419C5.0085 50.9462 8.65703 60.2942 15.2245 67.4386C21.792 74.5829 30.8006 79.0037 40.4699 79.8272C50.1392 80.6507 59.7656 77.817 67.4467 71.8862C75.1277 65.9554 80.3045 57.359 81.954 47.7959C82.019 47.2959 82.072 46.8009 82.13 46.2959C82.9283 39.6981 82.0641 33.0055 79.616 26.8269V26.8269ZM34.946 57.1649C35.127 57.2519 35.297 57.3459 35.483 57.4289L35.51 57.4459C35.322 57.3559 35.134 57.2622 34.946 57.1649V57.1649ZM75.776 28.8549V28.8179L75.783 28.8589L75.776 28.8549Z" fill="url(#paint0_linear)"/>
<path d="M79.616 26.8269C77.932 22.7749 74.516 18.3999 71.841 17.0169C73.749 20.712 75.073 24.6804 75.766 28.7809V28.8179L75.773 28.8589C78.7603 37.4074 78.3282 46.7796 74.567 55.0169C70.125 64.5479 59.373 74.3169 42.543 73.8419C24.358 73.3269 8.343 59.8329 5.349 42.1589C4.804 39.3719 5.349 37.9589 5.623 35.6939C5.24923 37.4533 5.04065 39.2437 5 41.0419V41.2419C5.0085 50.9462 8.65703 60.2942 15.2245 67.4386C21.792 74.5829 30.8006 79.0036 40.4699 79.8272C50.1392 80.6507 59.7656 77.817 67.4467 71.8862C75.1277 65.9554 80.3045 57.359 81.954 47.7959C82.019 47.2959 82.072 46.8009 82.13 46.2959C82.9283 39.6981 82.0641 33.0055 79.616 26.8269V26.8269Z" fill="url(#paint1_radial)"/>
<path d="M79.616 26.8269C77.932 22.7749 74.516 18.3999 71.841 17.0169C73.749 20.712 75.073 24.6804 75.766 28.7809V28.8179L75.773 28.8589C78.7603 37.4074 78.3282 46.7796 74.567 55.0169C70.125 64.5479 59.373 74.3169 42.543 73.8419C24.358 73.3269 8.343 59.8329 5.349 42.1589C4.804 39.3719 5.349 37.9589 5.623 35.6939C5.24923 37.4533 5.04065 39.2437 5 41.0419V41.2419C5.0085 50.9462 8.65703 60.2942 15.2245 67.4386C21.792 74.5829 30.8006 79.0036 40.4699 79.8272C50.1392 80.6507 59.7656 77.817 67.4467 71.8862C75.1277 65.9554 80.3045 57.359 81.954 47.7959C82.019 47.2959 82.072 46.8009 82.13 46.2959C82.9283 39.6981 82.0641 33.0055 79.616 26.8269V26.8269Z" fill="url(#paint2_radial)"/>
<path d="M60.782 31.3829C60.866 31.4419 60.944 31.5009 61.023 31.5599C60.0494 29.8336 58.8375 28.2531 57.423 26.8649C45.377 14.8169 54.266 0.741913 55.765 0.0269133L55.78 0.00491333C46.045 5.70491 42.742 16.2569 42.438 21.5349C42.89 21.5039 43.338 21.4659 43.8 21.4659C47.2542 21.4722 50.6451 22.3932 53.6279 24.1351C56.6107 25.8769 59.0791 28.3777 60.782 31.3829V31.3829Z" fill="url(#paint3_radial)"/>
<path d="M43.825 33.7889C43.761 34.7529 40.355 38.0779 39.164 38.0779C28.143 38.0779 26.354 44.7449 26.354 44.7449C26.842 50.3589 30.754 54.9829 35.483 57.4289C35.699 57.5409 35.918 57.6419 36.137 57.7409C36.5163 57.9089 36.8957 58.0642 37.275 58.2069C38.898 58.7813 40.5978 59.1093 42.318 59.1799C61.635 60.0859 65.377 36.0799 51.437 29.1139C54.7256 28.686 58.0558 29.4946 60.782 31.3829C59.0791 28.3777 56.6107 25.8769 53.6279 24.1351C50.6451 22.3932 47.2542 21.4722 43.8 21.4659C43.34 21.4659 42.89 21.5039 42.438 21.5349C38.5503 21.8021 34.8334 23.2348 31.772 25.6459C32.363 26.1459 33.03 26.8139 34.435 28.1989C37.065 30.7899 43.81 33.4739 43.825 33.7889V33.7889Z" fill="url(#paint4_radial)"/>
<path d="M43.825 33.7889C43.761 34.7529 40.355 38.0779 39.164 38.0779C28.143 38.0779 26.354 44.7449 26.354 44.7449C26.842 50.3589 30.754 54.9829 35.483 57.4289C35.699 57.5409 35.918 57.6419 36.137 57.7409C36.5163 57.9089 36.8957 58.0642 37.275 58.2069C38.898 58.7813 40.5978 59.1093 42.318 59.1799C61.635 60.0859 65.377 36.0799 51.437 29.1139C54.7256 28.686 58.0558 29.4946 60.782 31.3829C59.0791 28.3777 56.6107 25.8769 53.6279 24.1351C50.6451 22.3932 47.2542 21.4722 43.8 21.4659C43.34 21.4659 42.89 21.5039 42.438 21.5349C38.5503 21.8021 34.8334 23.2348 31.772 25.6459C32.363 26.1459 33.03 26.8139 34.435 28.1989C37.065 30.7899 43.81 33.4739 43.825 33.7889V33.7889Z" fill="url(#paint5_radial)"/>
<path d="M29.965 24.3569C30.279 24.5569 30.538 24.7309 30.765 24.8879C29.8819 21.7969 29.8442 18.5255 30.656 15.4149C27.0809 17.1468 23.9043 19.602 21.327 22.6249C21.516 22.6199 27.138 22.5189 29.965 24.3569V24.3569Z" fill="url(#paint6_radial)"/>
<path d="M5.354 42.1589C8.345 59.8329 24.363 73.3269 42.548 73.8419C59.378 74.3179 70.13 64.5479 74.572 55.0169C78.3332 46.7796 78.7653 37.4074 75.778 28.8589V28.8219C75.778 28.7929 75.772 28.7759 75.778 28.7849L75.785 28.8499C77.16 37.8269 72.594 46.5239 65.456 52.4049L65.434 52.4549C51.526 63.7819 38.216 59.2889 35.522 57.4549C35.334 57.3649 35.146 57.2712 34.958 57.1739C26.849 53.2979 23.499 45.9099 24.217 39.5739C22.2921 39.6023 20.4003 39.0719 18.7707 38.0469C17.1412 37.0219 15.8439 35.5463 15.036 33.7989C17.1646 32.4949 19.5917 31.7576 22.086 31.6575C24.5803 31.5574 27.0587 32.0977 29.285 33.2269C33.8749 35.3106 39.0978 35.5159 43.837 33.7989C43.822 33.4839 37.077 30.7989 34.447 28.2089C33.042 26.8239 32.375 26.1569 31.784 25.6559C31.4646 25.3854 31.1308 25.1323 30.784 24.8979C30.554 24.7409 30.295 24.5709 29.984 24.3669C27.157 22.5289 21.535 22.6299 21.349 22.6349H21.331C19.795 20.6879 19.903 14.2679 19.991 12.9269C19.5366 13.1095 19.1028 13.3398 18.697 13.6139C17.341 14.5817 16.0734 15.6676 14.909 16.8589C13.5774 18.2004 12.3604 19.6512 11.271 21.1959V21.2019V21.1949C8.77924 24.7275 7.0119 28.7186 6.071 32.9379C6.052 33.0169 4.675 39.0369 5.354 42.1589V42.1589Z" fill="url(#paint7_radial)"/>
<path d="M57.425 26.8649C58.8399 28.2546 60.0518 29.8368 61.025 31.5649C61.238 31.7259 61.437 31.8859 61.606 32.0409C70.393 40.1409 65.789 51.5909 65.446 52.4059C72.584 46.5249 77.146 37.8279 75.775 28.8509C71.391 17.9209 63.96 13.5159 57.891 3.92391C57.584 3.43891 57.277 2.95291 56.978 2.43991C56.807 2.14691 56.67 1.88291 56.551 1.63991C56.2993 1.15247 56.1053 0.637319 55.973 0.104915C55.9732 0.0803467 55.9643 0.0565733 55.9481 0.0381294C55.9318 0.0196855 55.9094 0.00786207 55.885 0.0049145C55.8611 -0.00163817 55.8359 -0.00163817 55.812 0.0049145C55.807 0.0049145 55.799 0.0139145 55.793 0.0159145C55.787 0.0179145 55.774 0.0269145 55.765 0.0309145C54.266 0.741915 45.377 14.8169 57.425 26.8649V26.8649Z" fill="url(#paint8_radial)"/>
<path d="M61.6 32.0359C61.431 31.8809 61.232 31.7209 61.019 31.5599C60.94 31.5009 60.862 31.4419 60.778 31.3829C58.0518 29.4946 54.7216 28.686 51.433 29.1139C65.373 36.0839 61.633 60.0859 42.314 59.1799C40.5938 59.1093 38.894 58.7813 37.271 58.2069C36.8917 58.0649 36.5123 57.9096 36.133 57.7409C35.914 57.6409 35.695 57.5409 35.479 57.4289L35.506 57.4459C38.2 59.2849 51.506 63.7779 65.418 52.4459L65.44 52.3959C65.787 51.5859 70.391 40.1329 61.6 32.0359V32.0359Z" fill="url(#paint9_radial)"/>
<path d="M26.354 44.7449C26.354 44.7449 28.143 38.0779 39.164 38.0779C40.355 38.0779 43.764 34.7529 43.825 33.7889C39.0857 35.5059 33.8628 35.3006 29.273 33.2169C27.0467 32.0877 24.5683 31.5474 22.074 31.6475C19.5797 31.7476 17.1526 32.4849 15.024 33.7889C15.8319 35.5363 17.1292 37.0119 18.7587 38.0369C20.3883 39.0619 22.2801 39.5923 24.205 39.5639C23.487 45.9009 26.837 53.2889 34.946 57.1639C35.127 57.2509 35.297 57.3449 35.483 57.4279C30.75 54.9829 26.842 50.3589 26.354 44.7449Z" fill="url(#paint10_radial)"/>
<path d="M79.616 26.8269C77.932 22.7749 74.516 18.3999 71.841 17.0169C73.749 20.712 75.073 24.6804 75.766 28.7809L75.773 28.8459C71.391 17.9209 63.96 13.5159 57.891 3.92391C57.584 3.43891 57.277 2.95291 56.978 2.43991C56.807 2.14691 56.67 1.88291 56.551 1.63991C56.2993 1.15247 56.1053 0.637319 55.973 0.104915C55.9732 0.0803467 55.9643 0.0565733 55.9481 0.0381294C55.9318 0.0196855 55.9094 0.00786207 55.885 0.0049145C55.8611 -0.00163817 55.8359 -0.00163817 55.812 0.0049145C55.807 0.0049145 55.799 0.0139145 55.793 0.0159145C55.787 0.0179145 55.774 0.0269145 55.765 0.0309145L55.78 0.0049145C46.045 5.70491 42.742 16.2569 42.438 21.5349C42.89 21.5039 43.338 21.4659 43.8 21.4659C47.2542 21.4722 50.6451 22.3932 53.6279 24.1351C56.6107 25.8769 59.0791 28.3777 60.782 31.3829C58.0558 29.4946 54.7256 28.686 51.437 29.1139C65.377 36.0839 61.637 60.0859 42.318 59.1799C40.5978 59.1093 38.898 58.7813 37.275 58.2069C36.8957 58.0649 36.5163 57.9096 36.137 57.7409C35.918 57.6409 35.699 57.5409 35.483 57.4289L35.51 57.4459C35.322 57.3559 35.134 57.2622 34.946 57.1649C35.127 57.2519 35.297 57.3459 35.483 57.4289C30.75 54.9829 26.842 50.3589 26.354 44.7449C26.354 44.7449 28.143 38.0779 39.164 38.0779C40.355 38.0779 43.764 34.7529 43.825 33.7889C43.81 33.4739 37.065 30.7889 34.435 28.1989C33.03 26.8139 32.363 26.1469 31.772 25.6459C31.4526 25.3754 31.1188 25.1223 30.772 24.8879C29.8889 21.7969 29.8513 18.5255 30.663 15.4149C27.0879 17.1468 23.9113 19.602 21.334 22.6249H21.316C19.78 20.6779 19.888 14.2579 19.976 12.9169C19.5216 13.0995 19.0878 13.3298 18.682 13.6039C17.326 14.5717 16.0584 15.6576 14.894 16.8489C13.5671 18.1942 12.3552 19.6483 11.271 21.1959V21.2019V21.1949C8.77924 24.7275 7.0119 28.7186 6.071 32.9379L6.019 33.1939C5.946 33.5349 5.619 35.2669 5.572 35.6389C5.572 35.6669 5.572 35.6099 5.572 35.6389C5.27291 37.4268 5.0819 39.2311 5 41.0419V41.2419C5.0085 50.9462 8.65703 60.2942 15.2245 67.4386C21.792 74.5829 30.8006 79.0037 40.4699 79.8272C50.1392 80.6507 59.7656 77.817 67.4467 71.8862C75.1277 65.9554 80.3045 57.359 81.954 47.7959C82.019 47.2959 82.072 46.8009 82.13 46.2959C82.9283 39.6981 82.0641 33.0055 79.616 26.8269V26.8269ZM75.771 28.8179L75.778 28.8589L75.771 28.8179Z" fill="url(#paint11_linear)"/>
</g>
<defs>
<linearGradient id="paint0_linear" x1="74.486" y1="12.3889" x2="10.147" y2="74.4639" gradientUnits="userSpaceOnUse">
<stop offset="0.048" stop-color="#FFF44F"/>
<stop offset="0.111" stop-color="#FFE847"/>
<stop offset="0.225" stop-color="#FFC830"/>
<stop offset="0.368" stop-color="#FF980E"/>
<stop offset="0.401" stop-color="#FF8B16"/>
<stop offset="0.462" stop-color="#FF672A"/>
<stop offset="0.534" stop-color="#FF3647"/>
<stop offset="0.705" stop-color="#E31587"/>
</linearGradient>
<radialGradient id="paint1_radial" cx="0" cy="0" r="1" gradientUnits="userSpaceOnUse" gradientTransform="translate(71.513 8.87479) scale(80.797)">
<stop offset="0.129" stop-color="#FFBD4F"/>
<stop offset="0.186" stop-color="#FFAC31"/>
<stop offset="0.247" stop-color="#FF9D17"/>
<stop offset="0.283" stop-color="#FF980E"/>
<stop offset="0.403" stop-color="#FF563B"/>
<stop offset="0.467" stop-color="#FF3750"/>
<stop offset="0.71" stop-color="#F5156C"/>
<stop offset="0.782" stop-color="#EB0878"/>
<stop offset="0.86" stop-color="#E50080"/>
</radialGradient>
<radialGradient id="paint2_radial" cx="0" cy="0" r="1" gradientUnits="userSpaceOnUse" gradientTransform="translate(41.9891 41.907) scale(80.797)">
<stop offset="0.3" stop-color="#960E18"/>
<stop offset="0.351" stop-color="#B11927" stop-opacity="0.74"/>
<stop offset="0.435" stop-color="#DB293D" stop-opacity="0.343"/>
<stop offset="0.497" stop-color="#F5334B" stop-opacity="0.094"/>
<stop offset="0.53" stop-color="#FF3750" stop-opacity="0"/>
</radialGradient>
<radialGradient id="paint3_radial" cx="0" cy="0" r="1" gradientUnits="userSpaceOnUse" gradientTransform="translate(51.7298 -9.4611) scale(58.534)">
<stop offset="0.132" stop-color="#FFF44F"/>
<stop offset="0.252" stop-color="#FFDC3E"/>
<stop offset="0.506" stop-color="#FF9D12"/>
<stop offset="0.526" stop-color="#FF980E"/>
</radialGradient>
<radialGradient id="paint4_radial" cx="0" cy="0" r="1" gradientUnits="userSpaceOnUse" gradientTransform="translate(33.0521 63.0115) scale(38.471)">
<stop offset="0.353" stop-color="#3A8EE6"/>
<stop offset="0.472" stop-color="#5C79F0"/>
<stop offset="0.669" stop-color="#9059FF"/>
<stop offset="1" stop-color="#C139E6"/>
</radialGradient>
<radialGradient id="paint5_radial" cx="0" cy="0" r="1" gradientUnits="userSpaceOnUse" gradientTransform="translate(46.4041 35.2854) rotate(-13.5916) scale(20.3971 23.8799)">
<stop offset="0.206" stop-color="#9059FF" stop-opacity="0"/>
<stop offset="0.278" stop-color="#8C4FF3" stop-opacity="0.064"/>
<stop offset="0.747" stop-color="#7716A8" stop-opacity="0.45"/>
<stop offset="0.975" stop-color="#6E008B" stop-opacity="0.6"/>
</radialGradient>
<radialGradient id="paint6_radial" cx="0" cy="0" r="1" gradientUnits="userSpaceOnUse" gradientTransform="translate(40.969 5.5691) scale(27.676)">
<stop stop-color="#FFE226"/>
<stop offset="0.121" stop-color="#FFDB27"/>
<stop offset="0.295" stop-color="#FFC82A"/>
<stop offset="0.502" stop-color="#FFA930"/>
<stop offset="0.732" stop-color="#FF7E37"/>
<stop offset="0.792" stop-color="#FF7139"/>
</radialGradient>
<radialGradient id="paint7_radial" cx="0" cy="0" r="1" gradientUnits="userSpaceOnUse" gradientTransform="translate(62.7229 -11.9855) scale(118.081)">
<stop offset="0.113" stop-color="#FFF44F"/>
<stop offset="0.456" stop-color="#FF980E"/>
<stop offset="0.622" stop-color="#FF5634"/>
<stop offset="0.716" stop-color="#FF3647"/>
<stop offset="0.904" stop-color="#E31587"/>
</radialGradient>
<radialGradient id="paint8_radial" cx="0" cy="0" r="1" gradientUnits="userSpaceOnUse" gradientTransform="translate(52.7709 -5.41957) rotate(83.976) scale(86.5444 56.7983)">
<stop stop-color="#FFF44F"/>
<stop offset="0.06" stop-color="#FFE847"/>
<stop offset="0.168" stop-color="#FFC830"/>
<stop offset="0.304" stop-color="#FF980E"/>
<stop offset="0.356" stop-color="#FF8B16"/>
<stop offset="0.455" stop-color="#FF672A"/>
<stop offset="0.57" stop-color="#FF3647"/>
<stop offset="0.737" stop-color="#E31587"/>
</radialGradient>
<radialGradient id="paint9_radial" cx="0" cy="0" r="1" gradientUnits="userSpaceOnUse" gradientTransform="translate(40.3172 15.8201) scale(73.72)">
<stop offset="0.137" stop-color="#FFF44F"/>
<stop offset="0.48" stop-color="#FF980E"/>
<stop offset="0.592" stop-color="#FF5634"/>
<stop offset="0.655" stop-color="#FF3647"/>
<stop offset="0.904" stop-color="#E31587"/>
</radialGradient>
<radialGradient id="paint10_radial" cx="0" cy="0" r="1" gradientUnits="userSpaceOnUse" gradientTransform="translate(59.7771 20.1346) scale(80.686)">
<stop offset="0.094" stop-color="#FFF44F"/>
<stop offset="0.231" stop-color="#FFE141"/>
<stop offset="0.509" stop-color="#FFAF1E"/>
<stop offset="0.626" stop-color="#FF980E"/>
</radialGradient>
<linearGradient id="paint11_linear" x1="73.713" y1="12.0569" x2="18.967" y2="66.8019" gradientUnits="userSpaceOnUse">
<stop offset="0.167" stop-color="#FFF44F" stop-opacity="0.8"/>
<stop offset="0.266" stop-color="#FFF44F" stop-opacity="0.634"/>
<stop offset="0.489" stop-color="#FFF44F" stop-opacity="0.217"/>
<stop offset="0.6" stop-color="#FFF44F" stop-opacity="0"/>
</linearGradient>
<clipPath id="clip0">
<rect width="87.4186" height="81.967" fill="white"/>
</clipPath>
</defs>
</svg>
