<svg width="601" height="165" viewBox="0 0 601 165" fill="none" xmlns="http://www.w3.org/2000/svg">
<path d="M0.399996 55.5L0.599997 110.8L2 116.5C3.7 123.2 6.1 129.5 8.8 134.1C17.2 148.5 31.7 158.6 49.2 162.1C57 163.7 69.1 163.4 77 161.4C94.3 156.9 109.1 145 117.1 129.1C122 119.3 124.1 105.9 122.6 94.2C120.1 74.8 108 57.5 90.5 48.1C81.9 43.4 73.8 41.5 62.2 41.5C57.8 41.5 53.5 41.7 52.5 41.8L50.8 42.1V66.3C50.8 79.6 51 90.4 51.2 90.3C58.6 86.6 58.9 86.5 62.9 86.7C65.2 86.8 67.7 87.4 69 87.9C72.3 89.5 75.5 93 76.8 96.5C81.4 108.7 72.5 120.5 59.5 119.5C52.4 119 47.8 114.9 45.5 107.4C44.6 104.4 44.5 100 44.4 52.1L44.2 0.100006H0.199997C0.199997 0.200006 0.399996 55.5 0.399996 55.5ZM203.6 60.3C200.7 61.7 198 64.6 197 67.3C196.3 69.2 196.3 73.3 197.1 76C197.9 78.8 201.9 82.6 204.8 83.4C216 86.5 225.4 78.2 222.5 67.9C221.8 65.3 218 61.2 215.2 59.9C211.8 58.4 207.1 58.6 203.6 60.3ZM469.5 60.2C464.7 62.4 462.2 66.4 462.2 71.8C462.2 77.8 466 82.5 472 83.7C475.4 84.4 479.6 84 482.2 82.6C487 80.2 489.6 74.2 488.3 68.8C487.5 65.4 484.2 61.4 481 59.9C477.7 58.5 472.9 58.6 469.5 60.2ZM231.2 112.7V161.1H257.8V64.4H231.2V112.7V112.7ZM262.9 97.3C263.2 132.5 263.2 133 266 140.5C270.4 152.3 283.1 161 297.1 162L301.8 162.3V134L299.1 133.7C292.9 132.9 290.5 130.2 290 123.1L289.7 119.2H301.3V91H289.9V64.4H262.7C262.7 64.3 262.9 97.3 262.9 97.3ZM322 98.4C322.2 131.7 322.2 132.6 323.4 136.8C325.5 144.1 328.1 148.8 333 153.8C340.2 161 348.4 164.4 359 164.5C368.8 164.6 376.6 161.5 385.8 153.6L388.6 151.2L392.4 154.4C401.7 162.3 411.9 165.7 422.3 164.3C430.1 163.3 435.1 161.3 440.8 156.7C447.2 151.6 451.5 145.6 454.2 137.8L455.7 133.6L455.9 98.9L456.1 64.3L437.7 64.4L419.3 64.6L419 94.3C418.7 123.4 418.7 124 417.6 125.5C414.8 129.2 410.3 129.1 408.4 125.2C407.4 123.4 407.4 121.2 407.2 93.7L407 64.2L388.7 64.3L370.4 64.5L370.1 94.2C369.8 123.3 369.8 123.9 368.7 125.4C367 127.7 365 128.6 362.5 127.8C358.9 126.7 359 127.5 358.7 94.3L358.4 64.4L340 64.2L321.6 64.1C321.9 64.3 322 98.4 322 98.4ZM493.7 94.1C493.7 125 494 131.1 495.9 137.5C500 151.4 512.6 161.1 528.1 162.1L532.8 162.4V134.1L530.1 133.8C524.4 133.1 521.7 130.5 521.1 124.9C520.9 123.4 520.7 121.6 520.6 120.8L520.4 119.3H532.3V91H520.3V64.4H493.7C493.7 64.3 493.7 94.1 493.7 94.1ZM538.2 112.7V161.1H564.8V140.4C564.8 123.3 565 119.4 565.6 118.2C566.9 115.6 570 115.2 572.1 117.3L573.5 118.6V161H600.1V135.6C600.1 107.7 599.9 106 596.8 100.2C593.9 94.7 589.5 91 584 89.6C578.4 88.1 572.9 88.8 567.8 91.7C566.4 92.5 565.2 93.1 565.1 93.1C565 93.1 564.9 86.6 564.9 78.7V64.3H538.3V112.7H538.2ZM196.4 125.7V161H223V90.4H196.4V125.7ZM462.1 125.7V161H488.7V90.4H462.1V125.7ZM125.2 113.1C125.2 137.9 125.4 139.9 128.7 146.8C132.2 154.2 140 160.5 148 162.4C152.5 163.4 160.4 163.4 164.4 162.4C174.6 159.7 183.4 151.2 186.7 140.7C187.8 137 187.9 136.1 187.9 114.1V91.3L174.7 91.1L161.5 91L161.3 112.8L161.1 134.6L159.5 136C158.2 137.1 157.5 137.3 155.8 137.1C151.7 136.6 151.9 137.6 151.6 113.2L151.3 91.4L138.1 91.2L124.9 91.1C125.2 91 125.2 113.1 125.2 113.1Z" fill="#094303"/>
</svg>
