<svg width="128" height="128" viewBox="0 0 128 128" fill="none" xmlns="http://www.w3.org/2000/svg">
<path fill-rule="evenodd" clip-rule="evenodd" d="M63.9994 93.9355L7.33824 64.5078L0.00224445 69.7704L0 72.9895L63.9994 118.91L127.996 72.9918L128 69.7738L120.661 64.5078L63.9994 93.9355Z" fill="#1C0172"/>
<path fill-rule="evenodd" clip-rule="evenodd" d="M63.9994 10.1053L0.00336668 56.0236L0 59.2426L63.9994 105.164L127.996 59.2449L127.999 56.0258L63.9994 10.1053Z" fill="#4608AD"/>
<path fill-rule="evenodd" clip-rule="evenodd" d="M72.3723 55.424L64.5695 44.6585L71.222 39.7878L85.0916 60.3251L79.5063 64.4155L64.5908 58.2423L64.5268 58.2883L73.0209 69.1627L67.4356 73.2519L39.3811 63.0973L46.055 58.2108L60.7202 63.9248L60.8033 63.863L52.6649 53.3715L57.9158 49.5282L72.2881 55.4858L72.3723 55.424Z" fill="white"/>
</svg>
