<svg width="128" height="128" viewBox="0 0 128 128" fill="none" xmlns="http://www.w3.org/2000/svg">
<path fill-rule="evenodd" clip-rule="evenodd" d="M63.9994 93.9355L7.33824 64.5078L0.00224445 69.7704L0 72.9895L63.9994 118.91L127.996 72.9918L128 69.7738L120.661 64.5078L63.9994 93.9355Z" fill="white" fill-opacity="0.5"/>
<path fill-rule="evenodd" clip-rule="evenodd" d="M0.00336668 56.0236L63.9994 10.1053L127.999 56.0258L127.995 59.2449L63.9994 105.164L0 59.2427L0.00336668 56.0236ZM64.5695 44.6585L72.3724 55.424L72.2882 55.4858L57.9159 49.5281L52.665 53.3715L60.8033 63.863L60.7203 63.9248L46.055 58.2108L39.3812 63.0973L67.4357 73.2519L73.021 69.1627L64.5269 58.2883L64.5909 58.2422L79.5064 64.4154L85.0917 60.3251L71.2221 39.7878L64.5695 44.6585Z" fill="white"/>
</svg>
