<svg width="750" height="600" viewBox="0 0 750 600" fill="none" xmlns="http://www.w3.org/2000/svg">
<rect width="750" height="600" fill="white"/>
<path d="M628 262.5C628 255.625 622.375 250 615.5 250H515.5C508.625 250 503 255.625 503 262.5V337.5C503 344.375 508.625 350 515.5 350H615.5C622.375 350 628 344.375 628 337.5V262.5ZM615.5 262.5L565.5 293.75L515.5 262.5H615.5ZM615.5 337.5H515.5V275L565.5 306.25L615.5 275V337.5Z" fill="#4608AD"/>
<path d="M221.046 0L171 28.8508V86.4983L185.294 94.7331L185.201 37.1049L220.954 16.4658L256.706 37.1049V94.71L271 86.4983V28.8006L221.046 0Z" fill="#A283D6"/>
<path d="M228.145 94.7331L221 98.8602L213.832 94.7563V37.1049L199.538 45.3358L199.561 102.964L221 115.326L242.439 102.964V45.3358L228.145 37.1049V94.7331Z" fill="#A283D6"/>
<path d="M262.968 173H244.876C240.463 173 236.844 176.614 236.844 181.021V204.537V272.867H244.876H262.968C267.381 272.867 271 269.253 271 264.846V181.021C271 176.614 267.381 173 262.968 173Z" fill="#A283D6"/>
<path d="M202.579 212.421V238.702H178.895C174.564 238.702 171 242.261 171 246.586V264.983C171 269.308 174.564 272.867 178.895 272.867H236.789V204.537H210.474C206.115 204.537 202.579 208.096 202.579 212.421Z" fill="#4608AD" fill-opacity="0.25"/>
<path d="M236.79 204.92V272.867H244.821H262.913C264.64 272.867 266.258 272.319 267.573 271.361C269.602 269.91 270.945 267.529 270.945 264.846V239.03L236.79 204.92Z" fill="#4608AD"/>
<path d="M259.531 508.138C259.449 507.569 258.96 507.243 258.553 507.243C258.145 507.243 249.425 506.592 249.425 506.592C249.425 506.592 243.394 500.569 242.66 499.918C242.008 499.267 240.704 499.43 240.215 499.592C240.134 499.592 238.911 499.999 236.792 500.65C234.755 494.709 231.169 489.337 224.893 489.337C224.73 489.337 224.567 489.337 224.323 489.337C222.611 487.058 220.329 486 218.455 486C203.785 486 196.776 504.313 194.575 513.592C188.87 515.382 184.795 516.603 184.306 516.766C181.128 517.743 181.046 517.824 180.639 520.835C180.313 523.114 172 587.413 172 587.413L236.792 599.541L271.918 591.971C271.918 591.89 259.612 508.708 259.531 508.138ZM233.206 501.627C231.576 502.115 229.702 502.685 227.746 503.336C227.746 502.929 227.746 502.604 227.746 502.115C227.746 498.534 227.257 495.604 226.442 493.244C229.702 493.732 231.821 497.395 233.206 501.627ZM222.367 494.058C223.263 496.337 223.834 499.511 223.834 503.906C223.834 504.15 223.834 504.313 223.834 504.557C220.248 505.697 216.417 506.836 212.505 508.057C214.706 499.674 218.862 495.604 222.367 494.058ZM218.047 489.907C218.699 489.907 219.351 490.151 219.922 490.558C215.195 492.755 210.223 498.29 208.104 509.441C205.007 510.417 201.992 511.313 199.139 512.208C201.584 503.743 207.534 489.907 218.047 489.907Z" fill="#4608AD" fill-opacity="0.25"/>
<path d="M258.553 507.162C258.145 507.162 249.425 506.511 249.425 506.511C249.425 506.511 243.394 500.488 242.661 499.836C242.416 499.592 242.09 499.43 241.764 499.43L236.874 599.541L272 591.971C272 591.971 259.694 508.708 259.612 508.138C259.449 507.569 258.96 507.243 258.553 507.162Z" fill="#A283D6"/>
<path d="M224.893 526.533L220.574 539.393C220.574 539.393 216.743 537.358 212.098 537.358C205.252 537.358 204.926 541.672 204.926 542.73C204.926 548.59 220.248 550.869 220.248 564.624C220.248 575.449 213.402 582.448 204.111 582.448C192.945 582.448 187.322 575.53 187.322 575.53L190.337 565.682C190.337 565.682 196.205 570.728 201.095 570.728C204.355 570.728 205.659 568.205 205.659 566.333C205.659 558.682 193.108 558.357 193.108 545.741C193.108 535.16 200.688 524.905 216.091 524.905C221.959 524.824 224.893 526.533 224.893 526.533Z" fill="white"/>
<path d="M178.1 380.933C178.1 374.742 179.45 368.85 181.8 363.457L202.3 419.482C187.95 412.541 178.1 397.911 178.1 380.933ZM249.95 378.786C249.95 382.431 248.5 386.676 246.7 392.618L242.4 406.899L226.9 360.96L231.8 360.461C234.15 360.161 233.85 356.766 231.55 356.915C231.55 356.915 224.6 357.465 220.1 357.465L208.8 356.915C206.5 356.766 206.25 360.311 208.5 360.461L213.05 360.96L219.75 379.136L210.35 407.248L194.7 360.96L199.65 360.461C201.95 360.161 201.65 356.766 199.35 356.915C199.35 356.915 192.4 357.465 187.9 357.465L185.15 357.415C192.85 345.78 206 338.091 221 338.091C232.15 338.091 242.35 342.385 249.95 349.326H249.4C245.2 349.326 242.2 352.971 242.2 356.915C242.2 360.461 244.25 363.457 246.4 366.952C248.05 369.798 249.95 373.443 249.95 378.786ZM221.75 384.678L234.95 420.73L235.25 421.33C230.8 422.927 226 423.776 221 423.776C216.8 423.776 212.75 423.177 208.9 422.029L221.75 384.678ZM258.65 360.361C262 366.503 263.9 373.443 263.9 380.933C263.9 396.712 255.3 410.544 242.55 417.934L255.65 380.134C258.1 374.043 258.95 369.149 258.95 364.805L258.65 360.361ZM221 331C227.566 331 234.068 332.292 240.134 334.801C246.2 337.31 251.712 340.988 256.355 345.625C260.998 350.262 264.681 355.767 267.194 361.825C269.707 367.883 271 374.376 271 380.933C271 394.177 265.732 406.877 256.355 416.242C246.979 425.606 234.261 430.867 221 430.867C214.434 430.867 207.932 429.575 201.866 427.066C195.8 424.557 190.288 420.878 185.645 416.242C176.268 406.877 171 394.177 171 380.933C171 367.69 176.268 354.989 185.645 345.625C195.021 336.261 207.739 331 221 331ZM221 428.57C247.3 428.57 268.7 407.198 268.7 380.933C268.7 354.668 247.3 333.297 221 333.297C194.7 333.297 173.3 354.668 173.3 380.933C173.3 407.198 194.7 428.57 221 428.57Z" fill="#A283D6"/>
<path d="M466.5 297L441.5 282.566V311.434L466.5 297ZM319 64H321.875V59H319V64ZM327.625 64H333.375V59H327.625V64ZM339.125 64H342V59H339.125V64ZM342 64C342.728 64 343.449 64.0283 344.162 64.0836L344.55 59.0987C343.708 59.0333 342.858 59 342 59V64ZM348.425 64.7539C349.837 65.0919 351.207 65.539 352.526 66.0857L354.441 61.4671C352.881 60.8202 351.26 60.2911 349.588 59.8912L348.425 64.7539ZM356.369 68.0473C357.599 68.803 358.766 69.6531 359.859 70.5875L363.108 66.787C361.818 65.6837 360.439 64.6796 358.985 63.7866L356.369 68.0473ZM362.912 73.6408C363.847 74.7339 364.697 75.9008 365.453 77.1315L369.713 74.515C368.82 73.0607 367.816 71.6824 366.713 70.3918L362.912 73.6408ZM367.414 80.974C367.961 82.2925 368.408 83.6627 368.746 85.0753L373.609 83.9119C373.209 82.2403 372.68 80.6188 372.033 79.0587L367.414 80.974ZM369.416 89.3375C369.472 90.0506 369.5 90.7718 369.5 91.5H374.5C374.5 90.6424 374.467 89.7921 374.401 88.9503L369.416 89.3375ZM369.5 91.5V93.9375H374.5V91.5H369.5ZM369.5 98.8125V103.688H374.5V98.8125H369.5ZM369.5 108.563V113.438H374.5V108.563H369.5ZM369.5 118.313V123.187H374.5V118.313H369.5ZM369.5 128.062V132.937H374.5V128.062H369.5ZM369.5 137.813V142.687H374.5V137.813H369.5ZM369.5 147.563V152.437H374.5V147.563H369.5ZM369.5 157.313V162.188H374.5V157.313H369.5ZM369.5 167.062V171.938H374.5V167.062H369.5ZM369.5 176.812V181.688H374.5V176.812H369.5ZM369.5 186.563V191.437H374.5V186.563H369.5ZM369.5 196.312V201.187H374.5V196.312H369.5ZM369.5 206.063V210.938H374.5V206.063H369.5ZM369.5 215.812V220.687H374.5V215.812H369.5ZM369.5 225.563V230.438H374.5V225.563H369.5ZM369.5 235.312V240.187H374.5V235.312H369.5ZM369.5 245.062V249.938H374.5V245.062H369.5ZM369.5 254.813V259.687H374.5V254.813H369.5ZM369.5 264.562V267H374.5V264.562H369.5ZM369.5 267C369.5 267.858 369.533 268.708 369.599 269.55L374.584 269.162C374.528 268.449 374.5 267.728 374.5 267H369.5ZM370.391 274.588C370.791 276.26 371.32 277.881 371.967 279.441L376.586 277.526C376.039 276.207 375.592 274.837 375.254 273.425L370.391 274.588ZM374.287 283.985C375.18 285.439 376.184 286.818 377.287 288.108L381.088 284.859C380.153 283.766 379.303 282.599 378.547 281.369L374.287 283.985ZM380.892 291.713C382.182 292.816 383.561 293.82 385.015 294.713L387.631 290.453C386.401 289.697 385.234 288.847 384.141 287.912L380.892 291.713ZM389.559 297.033C391.119 297.68 392.74 298.209 394.412 298.609L395.575 293.746C394.163 293.408 392.793 292.961 391.474 292.414L389.559 297.033ZM399.45 299.401C400.292 299.467 401.142 299.5 402 299.5V294.5C401.272 294.5 400.551 294.472 399.838 294.416L399.45 299.401ZM402 299.5H404.688V294.5H402V299.5ZM410.063 299.5H415.438V294.5H410.063V299.5ZM420.813 299.5H426.188V294.5H420.813V299.5ZM431.563 299.5H436.938V294.5H431.563V299.5ZM442.313 299.5H447.687V294.5H442.313V299.5ZM453.063 299.5H458.438V294.5H453.063V299.5Z" fill="#A283D6"/>
<path d="M466.5 297L441.5 311.434V282.566L466.5 297ZM319 545.5H321.875V550.5H319V545.5ZM327.625 545.5H333.375V550.5H327.625V545.5ZM339.125 545.5H342V550.5H339.125V545.5ZM342 545.5C342.728 545.5 343.449 545.472 344.162 545.416L344.55 550.401C343.708 550.467 342.858 550.5 342 550.5V545.5ZM348.425 544.746C349.837 544.408 351.207 543.961 352.526 543.414L354.441 548.033C352.881 548.68 351.26 549.209 349.588 549.609L348.425 544.746ZM356.369 541.453C357.599 540.697 358.766 539.847 359.859 538.912L363.108 542.713C361.818 543.816 360.439 544.82 358.985 545.713L356.369 541.453ZM362.912 535.859C363.847 534.766 364.697 533.599 365.453 532.369L369.713 534.985C368.82 536.439 367.816 537.818 366.713 539.108L362.912 535.859ZM367.414 528.526C367.961 527.207 368.408 525.837 368.746 524.425L373.609 525.588C373.209 527.26 372.68 528.881 372.033 530.441L367.414 528.526ZM369.416 520.162C369.472 519.449 369.5 518.728 369.5 518H374.5C374.5 518.858 374.467 519.708 374.401 520.55L369.416 520.162ZM369.5 518V515.487H374.5V518H369.5ZM369.5 510.461V505.434H374.5V510.461H369.5ZM369.5 500.408V495.382H374.5V500.408H369.5ZM369.5 490.355V485.329H374.5V490.355H369.5ZM369.5 480.303V475.276H374.5V480.303H369.5ZM369.5 470.25V465.224H374.5V470.25H369.5ZM369.5 460.197V455.171H374.5V460.197H369.5ZM369.5 450.145V445.118H374.5V450.145H369.5ZM369.5 440.092V435.066H374.5V440.092H369.5ZM369.5 430.039V425.013H374.5V430.039H369.5ZM369.5 419.987V414.961H374.5V419.987H369.5ZM369.5 409.934V404.908H374.5V409.934H369.5ZM369.5 399.882V394.855H374.5V399.882H369.5ZM369.5 389.829V384.803H374.5V389.829H369.5ZM369.5 379.776V374.75H374.5V379.776H369.5ZM369.5 369.724V364.697H374.5V369.724H369.5ZM369.5 359.671V354.645H374.5V359.671H369.5ZM369.5 349.618V344.592H374.5V349.618H369.5ZM369.5 339.566V334.539H374.5V339.566H369.5ZM369.5 329.513V327H374.5V329.513H369.5ZM369.5 327C369.5 326.142 369.533 325.292 369.599 324.45L374.584 324.838C374.528 325.551 374.5 326.272 374.5 327H369.5ZM370.391 319.412C370.791 317.74 371.32 316.119 371.967 314.559L376.586 316.474C376.039 317.793 375.592 319.163 375.254 320.575L370.391 319.412ZM374.287 310.015C375.18 308.561 376.184 307.182 377.287 305.892L381.088 309.141C380.153 310.234 379.303 311.401 378.547 312.631L374.287 310.015ZM380.892 302.287C382.182 301.184 383.561 300.18 385.015 299.287L387.631 303.547C386.401 304.303 385.234 305.153 384.141 306.088L380.892 302.287ZM389.559 296.967C391.119 296.32 392.74 295.791 394.412 295.391L395.575 300.254C394.163 300.592 392.793 301.039 391.474 301.586L389.559 296.967ZM399.45 294.599C400.292 294.533 401.142 294.5 402 294.5V299.5C401.272 299.5 400.551 299.528 399.838 299.584L399.45 294.599ZM402 294.5H404.688V299.5H402V294.5ZM410.063 294.5H415.438V299.5H410.063V294.5ZM420.813 294.5H426.188V299.5H420.813V294.5ZM431.563 294.5H436.938V299.5H431.563V294.5ZM442.313 294.5H447.687V299.5H442.313V294.5ZM453.063 294.5H458.438V299.5H453.063V294.5Z" fill="#A283D6"/>
</svg>
