<svg width="1024" height="256" viewBox="0 0 1024 256" fill="none" xmlns="http://www.w3.org/2000/svg">
<g clip-path="url(#clip0)">
<path opacity="0.6" fill-rule="evenodd" clip-rule="evenodd" d="M150.121 196.538L17.212 127.546L0.00404408 139.884L-0.0012207 147.431L150.121 255.091L300.236 147.437L300.247 139.892L283.031 127.546L150.121 196.538Z" fill="white"/>
<path fill-rule="evenodd" clip-rule="evenodd" d="M150.082 0.0203857L-0.0327522 107.675L-0.0406494 115.222L150.082 222.884L300.196 115.227L300.204 107.68L150.082 0.0203857ZM169.722 106.269L151.419 81.0296L167.024 69.6103L199.558 117.759L186.456 127.349L151.469 112.876L151.319 112.984L171.244 138.479L158.142 148.066L92.3351 124.259L107.99 112.803L142.39 126.199L142.585 126.054L123.495 101.457L135.812 92.4462L169.525 106.414L169.722 106.269Z" fill="white"/>
<path fill-rule="evenodd" clip-rule="evenodd" d="M502.462 138.64C509.464 138.64 515.15 133.073 515.15 124.51C515.15 116.252 509.704 110.266 502.523 110.266C495.221 110.266 489.653 115.952 489.653 124.51C489.653 132.949 494.981 138.635 502.462 138.635V138.64ZM533.585 94.4055V154.377H515.39V147.911H515.15C511.32 152.939 505.695 155.514 498.511 155.514C481.993 155.514 470.263 143.005 470.263 124.452C470.263 106.135 482.111 93.2683 497.613 93.2683C504.078 93.2683 509.883 95.7822 514.134 100.75H514.374V94.4055H533.585Z" fill="white"/>
<path fill-rule="evenodd" clip-rule="evenodd" d="M590.264 124.51C590.264 115.952 584.697 110.266 577.397 110.266C569.734 110.266 564.227 116.25 564.227 124.51C564.227 133.068 569.913 138.635 577.455 138.635C584.936 138.635 590.264 132.95 590.264 124.51ZM609.657 124.45C609.657 143.005 597.866 155.514 581.406 155.514C574.523 155.514 569.137 153 565.246 148.51H564.946V178.616H545.796V94.4036H565.007V100.869H565.246C569.555 95.8409 575.541 93.2664 582.304 93.2664C597.806 93.2664 609.657 106.136 609.657 124.45Z" fill="white"/>
<path fill-rule="evenodd" clip-rule="evenodd" d="M663.763 124.51C663.763 115.952 658.195 110.266 650.896 110.266C643.233 110.266 637.726 116.25 637.726 124.51C637.726 133.068 643.412 138.635 650.954 138.635C658.435 138.635 663.763 132.95 663.763 124.51ZM683.155 124.45C683.155 143.005 671.365 155.514 654.905 155.514C648.021 155.514 642.635 153 638.745 148.51H638.445V178.616H619.294V94.4036H638.505V100.869H638.745C643.054 95.8409 649.04 93.2664 655.802 93.2664C671.304 93.2664 683.155 106.136 683.155 124.45Z" fill="white"/>
<path fill-rule="evenodd" clip-rule="evenodd" d="M721.94 138.64C728.942 138.64 734.628 133.073 734.628 124.51C734.628 116.252 729.182 110.266 722.001 110.266C714.698 110.266 709.131 115.952 709.131 124.51C709.131 132.949 714.459 138.635 721.94 138.635V138.64ZM753.063 94.4055V154.377H734.868V147.911H734.628C730.798 152.939 725.173 155.514 717.989 155.514C701.471 155.514 689.741 143.005 689.741 124.452C689.741 106.135 701.589 93.2683 717.091 93.2683C723.556 93.2683 729.361 95.7822 733.612 100.75H733.852V94.4055H753.063Z" fill="white"/>
<path fill-rule="evenodd" clip-rule="evenodd" d="M765.931 154.377H785.024V64.1199H765.931V154.377Z" fill="white"/>
<path fill-rule="evenodd" clip-rule="evenodd" d="M855.83 94.405L824.346 178.618H805.375L815.728 150.306L792.326 94.405H812.198L824.407 126.905H824.707L836.197 94.405H855.83Z" fill="white"/>
<path fill-rule="evenodd" clip-rule="evenodd" d="M885.159 138.696V138.935H910.656V154.377H860.08V141.568L885.996 110.026V109.787H862.354V94.4057H911.672V107.094L885.159 138.696Z" fill="white"/>
<path fill-rule="evenodd" clip-rule="evenodd" d="M935.19 118.106L957.633 117.988C956.378 112.181 952.487 108.59 946.741 108.59C940.994 108.59 936.445 111.941 935.19 118.106ZM976.429 123.853C976.429 125.527 976.129 128.223 975.95 129.539H935.129C936.506 136.301 942.431 139.892 949.315 139.892C954.88 139.892 959.729 137.439 963.864 132.65L974.033 144.083C968.95 150.487 959.734 155.515 947.286 155.515C929.509 155.515 916.102 142.946 916.102 124.39C916.102 106.195 928.969 93.267 946.567 93.267C964.043 93.267 976.431 106.016 976.431 123.853H976.429Z" fill="white"/>
<path fill-rule="evenodd" clip-rule="evenodd" d="M1023.36 93.3276V113.976C1021.62 113.858 1019.83 113.858 1018.87 113.858C1009.77 113.858 1005.1 119.601 1005.1 127.443V154.378H985.948V94.4042H1005.1V102.425H1005.34C1009.89 96.4391 1016.12 93.267 1022.7 93.267C1022.88 93.267 1023.18 93.267 1023.36 93.3276Z" fill="white"/>
<path fill-rule="evenodd" clip-rule="evenodd" d="M474.331 67.2917L447.099 154.376H428.364L413.76 97.0983H413.581L398.439 154.376H379.705L352.473 67.2917H374.319L389.042 120.74H389.221L402.688 67.2917H424.294L437.583 120.74H437.762L452.485 67.2917H474.331Z" fill="white"/>
</g>
<defs>
<clipPath id="clip0">
<rect width="1024" height="255.342" fill="white"/>
</clipPath>
</defs>
</svg>
