<svg width="176" height="176" viewBox="0 0 176 176" fill="none" xmlns="http://www.w3.org/2000/svg">
<path d="M0 40.0323V56.0323L18.35 73.7923L40 86.0323L44 59.1023L40 34.0323L28.8 25.6323C16.93 16.7323 0 25.2023 0 40.0323Z" fill="#C5221F"/>
<path d="M136 34.0323L132 59.4323L136 86.0323L155.65 76.3023L176 56.0323V40.0323C176 25.2023 159.07 16.7323 147.2 25.6323L136 34.0323Z" fill="#FFBA00"/>
<path d="M12 154.032H40V86.0323L0 56.0323V142.032C0 148.662 5.37 154.032 12 154.032Z" fill="#2684FC"/>
<path d="M136 154.032H164C170.63 154.032 176 148.662 176 142.032V56.0323L136 86.0323V154.032Z" fill="#00AC47"/>
<path d="M88 70.0323L40 34.0323V86.0323L88 122.032L136 86.0323V34.0323L88 70.0323Z" fill="#E94235"/>
</svg>
