<svg width="154" height="155" viewBox="0 0 154 155" fill="none" xmlns="http://www.w3.org/2000/svg">
<path fill-rule="evenodd" clip-rule="evenodd" d="M51.3 5.29999V33.5C36 42.3 25.7 58.9 25.7 77.8C25.7 106.1 48.7 129.1 77 129.1C105.3 129.1 128.3 106.1 128.3 77.8C128.3 58.8 118 42.3 102.7 33.4V5.29999C132.6 15.9 154 44.4 154 77.9C154 120.4 119.5 154.8 77.1 154.8C34.7 154.8 0 120.3 0 77.8C0 44.3 21.4 15.8 51.3 5.29999Z" fill="#CCCCCC"/>
<path fill-rule="evenodd" clip-rule="evenodd" d="M64.1 1.89999C68.3 1.19999 72.6 0.799988 76.9 0.799988C81.3 0.799988 85.5 1.19999 89.7 1.89999V28.1C85.6 27 81.3 26.5 76.9 26.5C72.5 26.5 68.2 27.1 64.1 28.1C64.1 28.2 64.1 1.89999 64.1 1.89999Z" fill="#308CBB"/>
<path fill-rule="evenodd" clip-rule="evenodd" d="M64.1 101.3V41.5C68.1 40.1 72.4 39.3 76.9 39.3C81.4 39.3 85.7 40.1 89.7 41.5V101.3C85.7 102.7 81.4 103.5 76.9 103.5C72.5 103.5 68.1 102.7 64.1 101.3Z" fill="#308CBB"/>
</svg>
