<svg width="40" height="40" viewBox="0 0 140 140" fill="none" xmlns="http://www.w3.org/2000/svg"> <path d="M69.712 139.758C108.213 139.758 139.424 108.472 139.424 69.879C139.424 31.2859 108.213 0 69.712 0C31.2111 0 0 31.2859 0 69.879C0 108.472 31.2111 139.758 69.712 139.758Z" fill="#26292C" /> <path d="M62.132 39.63C61.835 37.227 60.262 34.294 54.088 34.294H39.038V47.767H46.168C47.1 47.767 47.438 48.281 47.438 49.213V113.443H64.237V87.534C66.726 89.834 70.834 92.997 78.275 92.997C93.903 92.997 104.103 80.581 104.103 62.804C104.103 44.744 94.242 32.609 78.82 32.609C69.833 32.609 64.644 36.836 62.132 39.629V39.63ZM63.172 62.78C63.172 50.728 69.747 46.434 75.9 46.434C83.448 46.434 88.516 52.958 88.516 62.671C88.516 73.739 82.071 78.691 75.681 78.691C67.087 78.691 63.171 70.444 63.171 62.781L63.172 62.78Z" fill="white" /> </svg>
