<svg width="750" height="600" viewBox="0 0 750 600" fill="none" xmlns="http://www.w3.org/2000/svg">
<rect width="750" height="600" fill="white"/>
<path d="M114 260C114 253.125 119.625 247.5 126.5 247.5H226.5C233.375 247.5 239 253.125 239 260V335C239 341.875 233.375 347.5 226.5 347.5H126.5C119.625 347.5 114 341.875 114 335V260ZM126.5 260L176.5 291.25L226.5 260H126.5ZM126.5 335H226.5V272.5L176.5 303.75L126.5 272.5V335Z" fill="#4608AD"/>
<path d="M552.474 416L483 536H621.947L552.474 416ZM552.474 441.263L600.032 523.368H504.916L552.474 441.263ZM546.158 466.526V491.789H558.789V466.526H546.158ZM546.158 504.421V517.053H558.789V504.421" fill="#4608AD"/>
<path d="M543 61C510 61 483 88 483 121C483 154 510 181 543 181C576 181 603 154 603 121C603 88 576 61 543 61ZM543 169C516.54 169 495 147.46 495 121C495 94.54 516.54 73 543 73C569.46 73 591 94.54 591 121C591 147.46 569.46 169 543 169ZM570.54 94.48L531 134.02L515.46 118.54L507 127L531 151L579 103L570.54 94.48Z" fill="#4608AD"/>
<path d="M443 476L418 461.566V490.434L443 476ZM269 301.5H271.292V296.5H269V301.5ZM275.875 301.5H280.458V296.5H275.875V301.5ZM285.042 301.5H289.625V296.5H285.042V301.5ZM294.208 301.5H298.792V296.5H294.208V301.5ZM303.375 301.5H307.958V296.5H303.375V301.5ZM312.542 301.5H317.125V296.5H312.542V301.5ZM321.708 301.5H324V296.5H321.708V301.5ZM324 301.5C324.728 301.5 325.449 301.528 326.162 301.584L326.55 296.599C325.708 296.533 324.858 296.5 324 296.5V301.5ZM330.425 302.254C331.837 302.592 333.207 303.039 334.526 303.586L336.441 298.967C334.881 298.32 333.26 297.791 331.588 297.391L330.425 302.254ZM338.369 305.547C339.599 306.303 340.766 307.153 341.859 308.088L345.108 304.287C343.818 303.184 342.439 302.18 340.985 301.287L338.369 305.547ZM344.912 311.141C345.847 312.234 346.697 313.401 347.453 314.631L351.713 312.015C350.82 310.561 349.816 309.182 348.713 307.892L344.912 311.141ZM349.414 318.474C349.961 319.793 350.408 321.163 350.746 322.575L355.609 321.412C355.209 319.74 354.68 318.119 354.033 316.559L349.414 318.474ZM351.416 326.838C351.472 327.551 351.5 328.272 351.5 329H356.5C356.5 328.142 356.467 327.292 356.401 326.45L351.416 326.838ZM351.5 329V331.438H356.5V329H351.5ZM351.5 336.313V341.188H356.5V336.313H351.5ZM351.5 346.063V350.938H356.5V346.063H351.5ZM351.5 355.813V360.688H356.5V355.813H351.5ZM351.5 365.563V370.438H356.5V365.563H351.5ZM351.5 375.313V380.188H356.5V375.313H351.5ZM351.5 385.063V389.937H356.5V385.063H351.5ZM351.5 394.813V399.688H356.5V394.813H351.5ZM351.5 404.562V409.438H356.5V404.562H351.5ZM351.5 414.313V419.187H356.5V414.313H351.5ZM351.5 424.063V428.938H356.5V424.063H351.5ZM351.5 433.812V438.688H356.5V433.812H351.5ZM351.5 443.563V446H356.5V443.563H351.5ZM351.5 446C351.5 446.858 351.533 447.708 351.599 448.55L356.584 448.162C356.528 447.449 356.5 446.728 356.5 446H351.5ZM352.391 453.588C352.791 455.26 353.32 456.881 353.967 458.441L358.586 456.526C358.039 455.207 357.592 453.837 357.254 452.425L352.391 453.588ZM356.287 462.985C357.18 464.439 358.184 465.818 359.287 467.108L363.088 463.859C362.153 462.766 361.303 461.599 360.547 460.369L356.287 462.985ZM362.892 470.713C364.182 471.816 365.561 472.82 367.015 473.713L369.631 469.453C368.401 468.697 367.234 467.847 366.141 466.912L362.892 470.713ZM371.559 476.033C373.119 476.68 374.74 477.209 376.412 477.609L377.575 472.746C376.163 472.408 374.793 471.961 373.474 471.414L371.559 476.033ZM381.45 478.401C382.292 478.467 383.142 478.5 384 478.5V473.5C383.272 473.5 382.551 473.472 381.838 473.416L381.45 478.401ZM384 478.5H386.458V473.5H384V478.5ZM391.375 478.5H396.292V473.5H391.375V478.5ZM401.208 478.5H406.125V473.5H401.208V478.5ZM411.042 478.5H415.958V473.5H411.042V478.5ZM420.875 478.5H425.792V473.5H420.875V478.5ZM430.708 478.5H435.625V473.5H430.708V478.5Z" fill="#A283D6"/>
<path d="M443 121L418 106.566V135.434L443 121ZM269 301.5H271.292V296.5H269V301.5ZM275.875 301.5H280.458V296.5H275.875V301.5ZM285.042 301.5H289.625V296.5H285.042V301.5ZM294.208 301.5H298.792V296.5H294.208V301.5ZM303.375 301.5H307.958V296.5H303.375V301.5ZM312.542 301.5H317.125V296.5H312.542V301.5ZM321.708 301.5H324V296.5H321.708V301.5ZM324 301.5C324.858 301.5 325.708 301.467 326.55 301.401L326.162 296.416C325.449 296.472 324.728 296.5 324 296.5V301.5ZM331.588 300.609C333.26 300.209 334.881 299.68 336.441 299.033L334.526 294.414C333.207 294.961 331.837 295.408 330.425 295.746L331.588 300.609ZM340.985 296.713C342.439 295.82 343.818 294.816 345.108 293.713L341.859 289.912C340.766 290.847 339.599 291.697 338.369 292.453L340.985 296.713ZM348.713 290.108C349.816 288.818 350.82 287.439 351.713 285.985L347.453 283.369C346.697 284.599 345.847 285.766 344.912 286.859L348.713 290.108ZM354.033 281.441C354.68 279.881 355.209 278.26 355.609 276.588L350.746 275.425C350.408 276.837 349.961 278.207 349.414 279.526L354.033 281.441ZM356.401 271.55C356.467 270.708 356.5 269.858 356.5 269H351.5C351.5 269.728 351.472 270.449 351.416 271.162L356.401 271.55ZM356.5 269V266.542H351.5V269H356.5ZM356.5 261.625V256.708H351.5V261.625H356.5ZM356.5 251.792V246.875H351.5V251.792H356.5ZM356.5 241.958V237.042H351.5V241.958H356.5ZM356.5 232.125V227.208H351.5V232.125H356.5ZM356.5 222.292V217.375H351.5V222.292H356.5ZM356.5 212.458V207.542H351.5V212.458H356.5ZM356.5 202.625V197.708H351.5V202.625H356.5ZM356.5 192.792V187.875H351.5V192.792H356.5ZM356.5 182.958V178.042H351.5V182.958H356.5ZM356.5 173.125V168.208H351.5V173.125H356.5ZM356.5 163.292V158.375H351.5V163.292H356.5ZM356.5 153.458V151H351.5V153.458H356.5ZM356.5 151C356.5 150.272 356.528 149.551 356.584 148.838L351.599 148.45C351.533 149.292 351.5 150.142 351.5 151H356.5ZM357.254 144.575C357.592 143.163 358.039 141.793 358.586 140.474L353.967 138.559C353.32 140.119 352.791 141.74 352.391 143.412L357.254 144.575ZM360.547 136.631C361.303 135.401 362.153 134.234 363.088 133.141L359.287 129.892C358.184 131.182 357.18 132.561 356.287 134.015L360.547 136.631ZM366.141 130.088C367.234 129.153 368.401 128.303 369.631 127.547L367.015 123.287C365.561 124.18 364.182 125.184 362.892 126.287L366.141 130.088ZM373.474 125.586C374.793 125.039 376.163 124.592 377.575 124.254L376.412 119.391C374.74 119.791 373.119 120.32 371.559 120.967L373.474 125.586ZM381.838 123.584C382.551 123.528 383.272 123.5 384 123.5V118.5C383.142 118.5 382.292 118.533 381.45 118.599L381.838 123.584ZM384 123.5H386.458V118.5H384V123.5ZM391.375 123.5H396.292V118.5H391.375V123.5ZM401.208 123.5H406.125V118.5H401.208V123.5ZM411.042 123.5H415.958V118.5H411.042V123.5ZM420.875 123.5H425.792V118.5H420.875V123.5ZM430.708 123.5H435.625V118.5H430.708V123.5Z" fill="#A283D6"/>
</svg>
