<svg width="177" height="23" viewBox="0 0 177 23" fill="none" xmlns="http://www.w3.org/2000/svg">
<path d="M123.463 0.483959H127.074V18.984H142.729L140.43 22.598H123.463V0.483959ZM95.109 22.598L81.753 1.52396C80.932 0.155959 78.743 0.155959 77.812 1.57896L64.566 22.598H68.945L72.941 16.248H81.48L83.725 12.635H75.186L79.839 5.35596L90.732 22.598H95.109ZM103.236 0.490959C97.134 0.490959 93.117 5.43796 93.117 11.541C93.117 17.643 97.135 22.592 103.236 22.592L118.074 22.574L120.396 18.992H103.345C99.232 18.992 96.825 15.656 96.825 11.541C96.825 7.42596 99.231 4.08996 103.345 4.08996H118.534L120.776 0.479959L103.236 0.490959ZM10.624 4.08996H26.278C30.393 4.08996 32.799 7.42596 32.799 11.541C32.799 15.656 30.394 18.992 26.278 18.992H10.624C6.509 18.992 4.104 15.656 4.104 11.541C4.104 7.42596 6.509 4.08996 10.624 4.08996ZM10.624 0.490959C4.521 0.490959 0.503998 5.43796 0.503998 11.541C0.503998 17.643 4.521 22.592 10.624 22.592H26.278C32.381 22.592 36.398 17.643 36.398 11.541C36.398 5.43796 32.381 0.490959 26.278 0.490959H10.624ZM146.588 13.293C147.176 16.563 149.426 18.992 152.938 18.992H169.989L167.665 22.574L152.829 22.592C146.725 22.592 142.71 17.643 142.71 11.541C142.71 5.43796 146.726 0.490959 152.829 0.490959L170.368 0.480959L168.128 4.09096H152.939C149.476 4.09096 147.216 6.47896 146.589 9.68096H168.019L165.72 13.294H146.588V13.293ZM56.821 13.613C60.3999 13.5505 63.2684 10.6314 63.2684 7.05196C63.2684 3.47253 60.3999 0.553447 56.821 0.490959L38.402 0.482959V22.597H42.453V4.09096H56.821C58.4563 4.09096 59.782 5.41664 59.782 7.05196C59.782 8.68727 58.4563 10.013 56.821 10.013H45.299L58.297 22.572H63.526L54.221 13.621L56.821 13.613ZM174.152 0.503959C175.091 0.503959 175.834 1.24596 175.834 2.22996C175.834 3.22996 175.092 3.96596 174.152 3.96596C173.201 3.96596 172.461 3.22996 172.461 2.22996C172.461 1.24596 173.201 0.503959 174.152 0.503959V0.157959C173.009 0.157959 172.043 1.03696 172.043 2.22896C172.043 3.43296 173.01 4.31196 174.152 4.31196C175.285 4.31196 176.252 3.43296 176.252 2.22896C176.252 1.03696 175.285 0.157959 174.152 0.157959V0.503959Z" fill="black"/>
<path d="M173.713 1.34494H174.209C174.461 1.34494 174.73 1.39994 174.73 1.69694C174.73 2.06494 174.455 2.08794 174.146 2.08794H173.712V2.39594H174.13L174.763 3.43494H175.169L174.487 2.37994C174.839 2.33594 175.108 2.14994 175.108 1.72094C175.108 1.24794 174.827 1.03894 174.262 1.03894H173.348V3.43494H173.711V1.34494H173.713Z" fill="black"/>
</svg>
