<svg width="2284" height="1130" viewBox="0 0 2284 1130" fill="none" xmlns="http://www.w3.org/2000/svg">
<path d="M0.886597 0.499573V1129.96H1154.66L2284 0.626722H0.886597V0.499573Z" fill="black"/>
<path fill-rule="evenodd" clip-rule="evenodd" d="M1368.93 540.934H1319.45V359.95H1368.93C1435 359.95 1487.59 381.718 1487.59 449.285C1487.59 519.064 1435 540.934 1368.93 540.934V540.934ZM836.307 670.321C811.739 670.402 787.356 666.078 764.315 657.555L835.595 432.755H837.12L906.925 658.165C884.281 666.228 860.42 670.339 836.383 670.321H836.307ZM1355.81 212.915H1131.09V747.271L934.771 212.915H740.182L572.447 659.666C554.722 547.062 438.076 508.078 346.376 479.012C285.929 459.558 221.592 430.975 222.177 399.315C222.685 373.428 256.736 349.422 323.896 353.008C369.161 355.296 409.086 358.958 488.351 397.281L566.42 261.282C494.098 224.333 393.879 201.141 311.893 200.963H311.385C215.743 200.963 136.046 232.14 86.6106 283.177C52.2549 318.881 33.6657 364.044 32.8265 414.319C31.555 483.183 56.9086 532.059 109.981 571.144C154.89 604.051 212.183 625.234 262.788 641.102C325.218 660.352 376.18 677.161 375.595 712.992C375.086 726.037 370.229 738.269 360.795 747.932C345.257 764.08 321.379 770.056 288.345 770.794C224.669 772.065 177.446 762.148 102.224 717.696L32.8265 855.602C110.386 899.663 198 922.97 287.201 923.271H298.924C377.756 921.745 441.433 899.24 492.318 858.349L500.557 851.152L478.077 911.573H682.151L716.431 807.336C752.287 819.466 793.127 826.282 836.358 826.282C878.546 826.282 918.343 819.924 953.563 808.328L986.52 911.573H1319.5V695.674H1392.15C1567.62 695.674 1671.52 606.365 1671.52 456.481C1671.52 289.662 1570.62 213.144 1355.79 213.144" fill="white"/>
</svg>
